<?xml version="1.0" standalone="no"?>
<!DOCTYPE svg PUBLIC "-//W3C//DTD SVG 20010904//EN"
 "http://www.w3.org/TR/2001/REC-SVG-20010904/DTD/svg10.dtd">
<svg version="1.0" xmlns="http://www.w3.org/2000/svg"
 width="1024.000000pt" height="1024.000000pt" viewBox="0 0 1024.000000 1024.000000"
 preserveAspectRatio="xMidYMid meet">
<metadata>
Created by potrace 1.14, written by Peter Selinger 2001-2017
</metadata>
<g transform="translate(0.000000,1024.000000) scale(0.100000,-0.100000)"
fill="#000000" stroke="none">
<path d="M3512 8939 c-88 -23 -175 -65 -257 -124 -221 -158 -295 -378 -215
-637 42 -137 100 -237 197 -339 142 -149 181 -289 109 -384 -48 -63 -141 -83
-214 -46 -58 29 -88 33 -106 15 -29 -29 -20 -68 28 -112 99 -91 200 -111 435
-87 131 14 237 63 307 143 32 38 73 124 83 177 29 155 -4 415 -73 579 -9 21
-16 53 -16 71 0 37 24 100 46 123 9 8 22 26 31 39 36 54 110 63 183 22 52 -30
75 -85 66 -161 -7 -52 -8 -245 -2 -303 20 -191 36 -278 72 -390 73 -233 211
-424 409 -571 41 -30 80 -64 86 -76 12 -23 6 -95 -10 -125 -6 -10 -24 -52 -42
-93 -58 -136 -112 -197 -228 -256 -135 -68 -209 -174 -295 -422 -84 -245 -115
-452 -111 -737 2 -115 6 -226 9 -245 4 -19 11 -57 16 -84 6 -26 13 -89 16
-140 8 -147 -18 -168 -140 -112 -115 53 -336 105 -462 109 -126 4 -148 -33
-149 -250 0 -106 4 -156 12 -164 16 -16 63 -15 146 3 38 8 89 14 115 14 41 -1
47 -4 50 -24 4 -28 -31 -63 -128 -127 -72 -47 -100 -86 -100 -137 0 -46 27
-72 114 -113 178 -85 280 -77 351 25 16 24 36 40 47 40 25 0 22 -10 -39 -113
-85 -145 -133 -186 -296 -252 -85 -34 -97 -57 -67 -119 11 -23 38 -61 61 -84
80 -81 191 -86 287 -14 82 60 42 -52 -57 -163 -71 -80 -121 -163 -149 -251
-18 -56 -37 -169 -35 -219 1 -52 14 -153 23 -185 6 -19 13 -44 15 -55 11 -50
90 -187 149 -259 37 -44 66 -88 66 -101 0 -24 -30 -55 -76 -78 -39 -20 -107
-84 -124 -115 -32 -63 -100 -108 -230 -152 -92 -31 -155 -41 -250 -39 -184 3
-207 2 -275 -20 -88 -28 -316 -141 -329 -162 -5 -9 -6 -28 -2 -42 7 -29 21
-32 181 -42 113 -7 205 -14 270 -20 28 -2 100 -7 160 -11 61 -3 130 -7 155 -9
384 -27 990 -26 1395 2 44 3 413 6 820 8 407 2 758 5 780 8 22 3 74 8 115 12
41 4 89 8 105 11 17 2 57 6 90 9 33 3 83 8 110 11 28 3 70 7 95 10 78 8 123
14 180 24 30 5 71 12 90 15 114 18 292 77 367 121 86 50 156 149 170 241 3 21
12 46 21 55 20 24 12 177 -13 214 -22 33 -151 181 -190 217 -37 34 -124 92
-180 119 -57 28 -75 62 -79 151 -5 89 -21 124 -77 162 -43 30 -80 44 -594 216
-173 58 -332 117 -375 141 -145 77 -266 194 -317 305 -37 81 -52 147 -69 303
-3 30 -7 71 -10 90 -10 88 -17 157 -18 184 -2 55 18 54 200 -8 284 -97 289
-98 405 -99 106 -1 107 -1 193 41 47 24 86 47 86 52 0 6 6 10 14 10 8 0 16 4
18 9 2 5 21 29 43 53 149 160 243 377 342 788 29 122 26 107 47 235 10 55 19
109 21 121 12 56 85 93 106 54 9 -18 110 -270 113 -285 14 -54 22 -73 39 -92
23 -26 45 -29 71 -10 18 13 17 17 -8 98 -15 46 -45 129 -66 185 -67 173 -56
269 45 389 23 28 48 61 55 75 22 40 20 108 -6 182 -64 190 -163 296 -323 349
-79 26 -124 54 -145 90 -15 25 -14 27 9 49 31 29 31 35 -1 77 -31 41 -41 97
-25 146 18 53 31 60 74 38 20 -10 49 -22 63 -25 15 -4 44 -25 65 -46 31 -31
44 -38 66 -34 59 10 58 8 39 89 -16 68 -46 102 -103 117 -30 7 -43 16 -43 28
0 22 25 29 78 23 34 -4 42 -1 52 17 14 27 5 54 -26 79 -23 18 -37 20 -156 16
-153 -5 -216 -22 -264 -72 -39 -40 -85 -61 -148 -67 -70 -8 -92 -27 -100 -89
-10 -87 -7 -186 8 -221 18 -44 56 -72 108 -80 94 -15 101 -62 27 -184 -116
-193 -152 -426 -100 -646 5 -21 9 -66 7 -100 -2 -52 -10 -78 -60 -176 -32 -63
-61 -117 -65 -120 -4 -3 -18 -23 -31 -45 -77 -129 -150 -195 -223 -202 -59 -6
-99 14 -200 100 -282 243 -448 469 -532 727 -35 108 -53 143 -113 222 -57 75
-77 137 -69 212 9 91 53 158 136 210 92 57 188 72 356 52 68 -8 299 -9 360 -2
17 2 57 6 90 10 116 14 181 41 206 88 16 29 67 181 71 209 2 13 14 45 26 70
38 79 30 141 -33 249 -20 34 -18 77 5 125 11 22 19 48 20 58 0 27 -29 66 -63
83 -16 9 -40 27 -53 41 -21 23 -22 27 -9 52 7 15 21 33 29 40 28 24 17 31 -47
31 -77 0 -104 20 -88 63 5 14 15 28 20 32 15 8 56 100 75 166 27 92 58 162 92
211 47 67 51 90 21 130 -14 18 -43 71 -64 118 -61 131 -155 209 -323 270 -122
43 -186 78 -264 144 -113 94 -260 161 -421 192 -22 4 -47 9 -55 10 -176 34
-433 21 -600 -31 -148 -46 -287 -113 -435 -211 -197 -129 -290 -111 -377 76
-30 64 -72 110 -143 154 -127 81 -225 99 -353 65z"/>
</g>
</svg>
