<svg width="80" height="80" viewBox="0 0 80 80" fill="none" xmlns="http://www.w3.org/2000/svg">
<path d="M59.8351 62.2427C60.0651 62.7527 59.9824 63.2914 59.9968 63.8229C59.9321 63.866 59.8135 63.9055 59.8099 63.9558C59.6158 65.8305 58.2391 66.4698 56.6971 66.8828C54.7956 67.4035 52.8258 67.4933 50.874 67.7196C46.8734 68.1829 42.8548 67.813 38.8469 67.9315C36.2086 68.0105 33.5738 68.2116 30.9391 68.1901C27.4632 68.1613 24.0017 67.874 20.5402 67.6298C20.3425 67.6298 20.0837 67.6549 20.019 67.364C19.9842 67.2455 19.9975 67.118 20.056 67.0091C20.1146 66.9002 20.2136 66.8187 20.3317 66.7822C21.5323 66.2974 22.5963 65.457 24.0305 65.5935C25.2991 65.7577 26.5872 65.5136 27.7076 64.8967C28.03 64.7613 28.2981 64.5225 28.4696 64.218C28.7209 63.7709 29.1054 63.4131 29.5696 63.1944C30.1015 62.882 30.3136 62.609 29.7457 62.038C27.6213 59.8831 27.4919 56.087 29.7457 54.0543C30.0484 53.7115 30.262 53.2995 30.3675 52.8547C30.3136 52.8296 30.2489 52.7865 30.2345 52.8009C29.0735 53.8065 27.8658 53.5192 27.1864 52.0646C27.075 51.824 27.1001 51.6337 27.3158 51.5116C27.5718 51.3633 27.8429 51.243 28.1246 51.1524C29.4797 50.7394 29.947 49.565 30.5904 48.4804C30.3136 48.3799 30.2058 48.4804 30.1519 48.5953C29.4761 49.7769 28.4157 49.4537 27.3949 49.0048C27.1222 48.8938 26.8639 48.7503 26.6257 48.5774C26.2087 48.2506 26.3633 47.5 26.9384 47.1408C27.319 46.9374 27.6738 46.689 27.9952 46.401C28.1246 46.2681 28.2899 46.1245 28.1965 45.9161C28.103 45.7078 27.8837 45.7545 27.7004 45.7869C27.2475 45.8623 26.791 45.9233 26.3489 46.0347C25.9068 46.146 25.63 46.0059 25.648 45.4888C25.6659 44.9716 25.648 44.4113 25.648 43.869C25.6875 42.9999 26.0901 42.5905 26.9312 42.709C28.1678 42.8141 29.3805 43.1109 30.5257 43.5889C31.3955 43.9983 31.5609 43.887 31.5645 42.9425C31.5198 42.2727 31.4297 41.6068 31.2949 40.9492C31.0232 38.759 31.1708 36.5372 31.7298 34.4021C31.9759 33.4382 32.3229 32.5029 32.765 31.6116C33.0835 30.8633 33.6782 30.2665 34.4257 29.9452C35.7377 29.4244 36.1007 28.1315 36.5824 26.9786C36.6649 26.7862 36.6739 26.5703 36.6076 26.3717C36.5414 26.1731 36.4045 26.0057 36.2229 25.9012C33.6026 24.1558 32.4523 21.6203 32.1935 18.5676C32.07 17.6941 32.0543 16.8088 32.1468 15.9315C32.2438 15.3245 32.1648 14.7176 31.471 14.4482C31.0828 14.2938 30.6263 14.222 30.3424 14.5631C29.8859 15.109 29.3647 15.6406 29.7277 16.5061C30.1797 17.6331 30.4092 18.8368 30.4035 20.0508C30.4358 22.0512 29.2712 23.4052 27.2655 23.556C26.1404 23.6422 24.9363 23.8469 23.9442 22.967C23.6638 22.7192 23.3583 22.4642 23.5524 22.0943C23.7465 21.7244 24.1203 21.965 24.3935 22.0943C24.6528 22.2458 24.9549 22.3071 25.2528 22.2688C25.5506 22.2304 25.8274 22.0946 26.0398 21.8824C26.5071 21.4156 26.5035 20.8337 26.2986 20.2232C26.09 19.696 25.7658 19.2223 25.3496 18.8369C24.4007 17.8704 23.7731 16.6352 23.5524 15.2994C23.4294 14.6104 23.4895 13.9012 23.7267 13.2426C23.9638 12.584 24.3698 11.9992 24.9039 11.5464C25.8048 10.7239 26.9315 10.1898 28.1389 10.0128C29.0879 9.87636 30.8923 10.8532 31.259 11.7547C31.8772 13.2846 32.7686 13.5109 34.1345 12.5556C36.5428 10.8676 39.2387 10.0775 42.143 10.5444C43.6096 10.7778 45.1121 11.198 46.2803 12.3401C46.8878 12.9398 47.8008 13.1266 48.5879 13.4642C49.6088 13.8987 50.3852 14.5057 50.7446 15.619C50.8488 15.8955 50.9982 16.1528 51.1868 16.3804C51.2299 16.4228 51.2642 16.4734 51.2876 16.5292C51.3109 16.585 51.323 16.6449 51.323 16.7054C51.323 16.7659 51.3109 16.8258 51.2876 16.8816C51.2642 16.9374 51.2299 16.988 51.1868 17.0304C50.6081 17.6805 50.4247 18.4957 50.1731 19.2894C50.0636 19.5928 49.9277 19.8861 49.7669 20.1657C49.6627 20.3669 49.3715 20.5033 49.5081 20.7907C49.6447 21.078 49.961 21.0097 50.227 21.0385C50.3996 21.06 50.5865 20.9164 50.7518 21.0851C50.094 21.8034 50.094 21.8034 50.928 22.3637C51.2874 22.6007 51.4528 22.8916 51.2191 23.3118C51.0764 23.5114 51.0061 23.7536 51.0198 23.9985C51.0335 24.2433 51.1305 24.4762 51.2946 24.6586C51.4958 24.9473 51.5979 25.2934 51.5856 25.645C51.5732 25.9966 51.4472 26.3348 51.2263 26.6087C51.1904 27.2013 50.8992 27.7257 50.7339 28.2787C50.5685 28.8318 50.0689 29.0186 49.5369 29.1119C48.02 29.3608 46.4749 29.3875 44.9503 29.191C44.1427 29.0781 43.3214 29.2618 42.6391 29.7081C42.3723 29.8707 42.145 30.0905 41.9735 30.3516C41.8021 30.6127 41.6909 30.9086 41.6479 31.2179C41.6049 31.5272 41.6312 31.8421 41.7249 32.14C41.8186 32.4379 41.9774 32.7113 42.1898 32.9404C42.5663 33.3606 42.8406 33.8621 42.9913 34.4057C43.7642 37.0921 45.5973 39.0171 47.6642 40.7302C48.5161 41.4484 49.2817 41.2617 49.9718 40.4033C50.6269 39.5464 51.1794 38.6159 51.6181 37.6308C51.9452 36.934 51.7187 36.2445 51.6181 35.5693C51.3301 33.8859 51.7176 32.1569 52.6964 30.7568C53.0559 30.2361 52.9157 29.6794 52.3657 29.6471C51.521 29.6183 51.3341 28.9288 51.3162 28.4475C51.3181 27.916 51.3601 27.3853 51.442 26.8601C51.6289 26.7703 51.8194 26.6016 52.0027 26.6051C52.2998 26.6179 52.5952 26.5538 52.8603 26.4192C53.1253 26.2846 53.3512 26.0839 53.516 25.8366C54.3966 25.402 55.3528 25.5457 56.2801 25.4774C56.3604 25.4832 56.4384 25.5061 56.5091 25.5445C56.5798 25.5829 56.6414 25.636 56.6899 25.7001C56.7785 25.7958 56.8394 25.9137 56.866 26.0413C56.8157 26.5872 56.4095 26.3537 56.1472 26.3609C56.0034 26.3609 55.8596 26.3609 55.7877 26.4902C55.7158 26.6195 55.8452 26.756 55.9854 26.7668C56.7043 26.8278 56.8912 27.3162 56.9451 27.9196C57.1644 28.1171 57.0494 28.2787 56.8517 28.3434C56.654 28.408 56.3269 28.4619 56.1903 28.2249C56.123 28.0961 56.0253 27.9856 55.9057 27.903C55.7861 27.8204 55.6481 27.7682 55.5037 27.7508C55.209 27.6933 54.8495 27.2552 54.6554 27.5892C54.526 27.7755 54.4529 27.995 54.4446 28.2216C54.4363 28.4482 54.4932 28.6725 54.6087 28.8677C54.7848 29.1227 55.1874 29.3454 54.6447 29.6722C54.4506 29.7871 54.6446 30.0098 54.7669 30.1499C54.9911 30.3852 55.28 30.5489 55.5972 30.6203C57.168 31.0513 57.9875 32.1934 58.3973 33.6766C58.4945 33.9331 58.5205 34.211 58.4724 34.481C58.4243 34.751 58.3039 35.003 58.1241 35.2102C57.1069 36.1978 57.0098 37.2644 57.5957 38.4999C57.8102 39.0211 57.9891 39.5563 58.1313 40.1017C58.196 40.31 58.4512 40.5685 58.1026 40.7158C57.7539 40.863 57.5346 40.6511 57.4268 40.3351C57.1915 39.5682 56.907 38.8172 56.5749 38.0869C56.4635 37.857 56.4922 37.4368 56.1795 37.4799C56.0087 37.5251 55.8568 37.6237 55.7462 37.7614C55.6356 37.899 55.572 38.0685 55.5648 38.2449C55.3685 39.5705 55.0851 40.8818 54.7165 42.1703C54.2025 44.0091 53.613 45.8084 52.2004 47.2234C50.9279 48.502 49.4794 48.5594 47.887 48.0171C47.0747 47.7406 46.2551 47.4676 45.4464 47.1731C45.0186 47.0187 44.7994 47.1264 44.8749 47.5897C45.0905 48.8862 45.0582 50.2187 45.4428 51.4864C45.7771 52.589 46.5643 53.3324 47.4737 53.9825C48.7821 54.9162 50.3493 55.1461 51.8086 55.7027C52.9085 56.1265 54.048 56.4462 55.1587 56.852C55.9854 57.1573 56.3664 57.6529 56.2945 58.4681C56.237 59.1218 56.5066 59.4306 57.0709 59.682C58.2787 60.2279 59.0299 61.273 59.8351 62.2427Z" fill="#010101"/>
</svg>
